solid OpenSCAD_Model
  facet normal -1 0 0
    outer loop
      vertex 0 -0.65 0
      vertex 0 -0.65 9.5
      vertex 0 7.95 0
    endloop
  endfacet
  facet normal -1 0 0
    outer loop
      vertex 0 7.95 0
      vertex 0 -0.65 9.5
      vertex 0 7.95 9.5
    endloop
  endfacet
  facet normal 0 -1 0
    outer loop
      vertex 0 -0.65 9.5
      vertex 0 -0.65 0
      vertex 6.5 -0.65 0
    endloop
  endfacet
  facet normal 0 -1 0
    outer loop
      vertex 6.5 -0.65 9.5
      vertex 0 -0.65 9.5
      vertex 6.5 -0.65 0
    endloop
  endfacet
  facet normal 0 0 -1
    outer loop
      vertex 0 -0.65 0
      vertex 0 7.95 0
      vertex 6.5 -0.65 0
    endloop
  endfacet
  facet normal 0 0 -1
    outer loop
      vertex 6.5 7.3 0
      vertex 0 7.95 0
      vertex 6.5 7.95 0
    endloop
  endfacet
  facet normal 0 0 -1
    outer loop
      vertex 6.5 -0.65 0
      vertex 0 7.95 0
      vertex 6.5 0 0
    endloop
  endfacet
  facet normal 0 0 -1
    outer loop
      vertex 6.5 7.3 0
      vertex 13.25 7.3 0
      vertex 6.5 0 0
    endloop
  endfacet
  facet normal 0 0 -1
    outer loop
      vertex 6.5 7.3 0
      vertex 6.5 0 0
      vertex 0 7.95 0
    endloop
  endfacet
  facet normal 0 0 -1
    outer loop
      vertex 6.5 0 0
      vertex 13.25 7.3 0
      vertex 13.25 0 0
    endloop
  endfacet
  facet normal 0 1 0
    outer loop
      vertex 0 7.95 0
      vertex 0 7.95 9.5
      vertex 6.5 7.95 0
    endloop
  endfacet
  facet normal 0 1 0
    outer loop
      vertex 6.5 7.95 0
      vertex 0 7.95 9.5
      vertex 6.5 7.95 9.5
    endloop
  endfacet
  facet normal 0 0 1
    outer loop
      vertex 2 1.5 9.5
      vertex 0 -0.65 9.5
      vertex 6.5 -0.65 9.5
    endloop
  endfacet
  facet normal 0 0 1
    outer loop
      vertex 4.1 5.5 9.5
      vertex 4.1 1.5 9.5
      vertex 6.5 -0.65 9.5
    endloop
  endfacet
  facet normal 0 0 1
    outer loop
      vertex 7.8 2.7 9.5
      vertex 7.8 4.8 9.5
      vertex 4.1 5.5 9.5
    endloop
  endfacet
  facet normal 0 0 1
    outer loop
      vertex 4.1 1.5 9.5
      vertex 2 1.5 9.5
      vertex 6.5 -0.65 9.5
    endloop
  endfacet
  facet normal 0 0 1
    outer loop
      vertex 0 7.95 9.5
      vertex 0 -0.65 9.5
      vertex 2 1.5 9.5
    endloop
  endfacet
  facet normal 0 0 1
    outer loop
      vertex 11.8 2.7 9.5
      vertex 7.8 2.7 9.5
      vertex 13.25 0 9.5
    endloop
  endfacet
  facet normal 0 0 1
    outer loop
      vertex 7.8 4.8 9.5
      vertex 11.8 4.8 9.5
      vertex 6.5 7.3 9.5
    endloop
  endfacet
  facet normal 0 0 1
    outer loop
      vertex 6.5 7.3 9.5
      vertex 0 7.95 9.5
      vertex 4.1 5.5 9.5
    endloop
  endfacet
  facet normal 0 0 1
    outer loop
      vertex 4.1 5.5 9.5
      vertex 6.5 0 9.5
      vertex 7.8 2.7 9.5
    endloop
  endfacet
  facet normal 0 0 1
    outer loop
      vertex 13.25 0 9.5
      vertex 7.8 2.7 9.5
      vertex 6.5 0 9.5
    endloop
  endfacet
  facet normal 0 0 1
    outer loop
      vertex 4.1 5.5 9.5
      vertex 6.5 -0.65 9.5
      vertex 6.5 0 9.5
    endloop
  endfacet
  facet normal 0 0 1
    outer loop
      vertex 6.5 7.3 9.5
      vertex 4.1 5.5 9.5
      vertex 7.8 4.8 9.5
    endloop
  endfacet
  facet normal 0 0 1
    outer loop
      vertex 13.25 7.3 9.5
      vertex 11.8 4.8 9.5
      vertex 13.25 0 9.5
    endloop
  endfacet
  facet normal 0 0 1
    outer loop
      vertex 13.25 7.3 9.5
      vertex 6.5 7.3 9.5
      vertex 11.8 4.8 9.5
    endloop
  endfacet
  facet normal 0 0 1
    outer loop
      vertex 11.8 4.8 9.5
      vertex 11.8 2.7 9.5
      vertex 13.25 0 9.5
    endloop
  endfacet
  facet normal 0 0 1
    outer loop
      vertex 6.5 7.3 9.5
      vertex 6.5 7.95 9.5
      vertex 0 7.95 9.5
    endloop
  endfacet
  facet normal 0 0 1
    outer loop
      vertex 2 1.5 9.5
      vertex 2 5.5 9.5
      vertex 0 7.95 9.5
    endloop
  endfacet
  facet normal 0 0 1
    outer loop
      vertex 2 5.5 9.5
      vertex 4.1 5.5 9.5
      vertex 0 7.95 9.5
    endloop
  endfacet
  facet normal 1 0 0
    outer loop
      vertex 6.5 -0.65 9.5
      vertex 6.5 -0.65 0
      vertex 6.5 0 0
    endloop
  endfacet
  facet normal 1 0 0
    outer loop
      vertex 6.5 0 9.5
      vertex 6.5 -0.65 9.5
      vertex 6.5 0 0
    endloop
  endfacet
  facet normal 0 -1 0
    outer loop
      vertex 6.5 0 9.5
      vertex 6.5 0 0
      vertex 13.25 0 0
    endloop
  endfacet
  facet normal 0 -1 0
    outer loop
      vertex 13.25 0 9.5
      vertex 6.5 0 9.5
      vertex 13.25 0 0
    endloop
  endfacet
  facet normal 1 0 0
    outer loop
      vertex 13.25 0 9.5
      vertex 13.25 0 0
      vertex 13.25 7.3 0
    endloop
  endfacet
  facet normal 1 0 0
    outer loop
      vertex 13.25 7.3 9.5
      vertex 13.25 0 9.5
      vertex 13.25 7.3 0
    endloop
  endfacet
  facet normal 0 1 0
    outer loop
      vertex 6.5 7.3 0
      vertex 6.5 7.3 9.5
      vertex 13.25 7.3 0
    endloop
  endfacet
  facet normal 0 1 0
    outer loop
      vertex 13.25 7.3 0
      vertex 6.5 7.3 9.5
      vertex 13.25 7.3 9.5
    endloop
  endfacet
  facet normal 1 0 0
    outer loop
      vertex 6.5 7.3 9.5
      vertex 6.5 7.3 0
      vertex 6.5 7.95 0
    endloop
  endfacet
  facet normal 1 0 0
    outer loop
      vertex 6.5 7.95 9.5
      vertex 6.5 7.3 9.5
      vertex 6.5 7.95 0
    endloop
  endfacet
  facet normal 2.22045e-16 1 0
    outer loop
      vertex 2 1.5 1.51
      vertex 2 1.5 9.5
      vertex 4.1 1.5 1.51
    endloop
  endfacet
  facet normal 2.22045e-16 1 0
    outer loop
      vertex 4.1 1.5 1.51
      vertex 2 1.5 9.5
      vertex 4.1 1.5 9.5
    endloop
  endfacet
  facet normal 1 -2.22045e-16 0
    outer loop
      vertex 2 1.5 9.5
      vertex 2 1.5 1.51
      vertex 2 5.5 1.51
    endloop
  endfacet
  facet normal 1 -2.22045e-16 0
    outer loop
      vertex 2 5.5 9.5
      vertex 2 1.5 9.5
      vertex 2 5.5 1.51
    endloop
  endfacet
  facet normal -1 2.22045e-16 0
    outer loop
      vertex 4.1 1.5 1.51
      vertex 4.1 1.5 9.5
      vertex 4.1 5.5 1.51
    endloop
  endfacet
  facet normal -1 2.22045e-16 0
    outer loop
      vertex 4.1 5.5 1.51
      vertex 4.1 1.5 9.5
      vertex 4.1 5.5 9.5
    endloop
  endfacet
  facet normal -2.22045e-16 -1 0
    outer loop
      vertex 2 5.5 9.5
      vertex 2 5.5 1.51
      vertex 4.1 5.5 1.51
    endloop
  endfacet
  facet normal -2.22045e-16 -1 0
    outer loop
      vertex 4.1 5.5 9.5
      vertex 2 5.5 9.5
      vertex 4.1 5.5 1.51
    endloop
  endfacet
  facet normal 1 0 0
    outer loop
      vertex 7.8 2.7 9.5
      vertex 7.8 2.7 1.51
      vertex 7.8 4.8 1.51
    endloop
  endfacet
  facet normal 1 0 0
    outer loop
      vertex 7.8 4.8 9.5
      vertex 7.8 2.7 9.5
      vertex 7.8 4.8 1.51
    endloop
  endfacet
  facet normal 0 1 0
    outer loop
      vertex 7.8 2.7 1.51
      vertex 7.8 2.7 9.5
      vertex 11.8 2.7 1.51
    endloop
  endfacet
  facet normal 0 1 0
    outer loop
      vertex 11.8 2.7 1.51
      vertex 7.8 2.7 9.5
      vertex 11.8 2.7 9.5
    endloop
  endfacet
  facet normal -1 0 0
    outer loop
      vertex 11.8 2.7 1.51
      vertex 11.8 2.7 9.5
      vertex 11.8 4.8 1.51
    endloop
  endfacet
  facet normal -1 0 0
    outer loop
      vertex 11.8 4.8 1.51
      vertex 11.8 2.7 9.5
      vertex 11.8 4.8 9.5
    endloop
  endfacet
  facet normal 0 -1 0
    outer loop
      vertex 7.8 4.8 9.5
      vertex 7.8 4.8 1.51
      vertex 11.8 4.8 1.51
    endloop
  endfacet
  facet normal 0 -1 0
    outer loop
      vertex 11.8 4.8 9.5
      vertex 7.8 4.8 9.5
      vertex 11.8 4.8 1.51
    endloop
  endfacet
  facet normal 0 0 1
    outer loop
      vertex 2 5.5 1.51
      vertex 2 1.5 1.51
      vertex 4.1 1.5 1.51
    endloop
  endfacet
  facet normal 0 0 1
    outer loop
      vertex 4.1 5.5 1.51
      vertex 2 5.5 1.51
      vertex 4.1 1.5 1.51
    endloop
  endfacet
  facet normal 0 0 1
    outer loop
      vertex 7.8 4.8 1.51
      vertex 7.8 2.7 1.51
      vertex 11.8 2.7 1.51
    endloop
  endfacet
  facet normal 0 0 1
    outer loop
      vertex 11.8 4.8 1.51
      vertex 7.8 4.8 1.51
      vertex 11.8 2.7 1.51
    endloop
  endfacet
endsolid OpenSCAD_Model
