solid OpenSCAD_Model
  facet normal -1 0 0
    outer loop
      vertex 0 -0.65 0
      vertex 0 -0.65 9.5
      vertex 0 7.95 0
    endloop
  endfacet
  facet normal -1 0 0
    outer loop
      vertex 0 7.95 0
      vertex 0 -0.65 9.5
      vertex 0 7.95 9.5
    endloop
  endfacet
  facet normal 0 -1 0
    outer loop
      vertex 0 -0.65 9.5
      vertex 0 -0.65 0
      vertex 6.5 -0.65 0
    endloop
  endfacet
  facet normal 0 -1 0
    outer loop
      vertex 6.5 -0.65 9.5
      vertex 0 -0.65 9.5
      vertex 6.5 -0.65 0
    endloop
  endfacet
  facet normal 0 0 -1
    outer loop
      vertex 0 -0.65 0
      vertex 0 7.95 0
      vertex 6.5 -0.65 0
    endloop
  endfacet
  facet normal 0 0 -1
    outer loop
      vertex 6.5 7.3 0
      vertex 0 7.95 0
      vertex 6.5 7.95 0
    endloop
  endfacet
  facet normal 0 0 -1
    outer loop
      vertex 6.5 -0.65 0
      vertex 0 7.95 0
      vertex 6.5 0 0
    endloop
  endfacet
  facet normal 0 0 -1
    outer loop
      vertex 6.5 7.3 0
      vertex 14 7.3 0
      vertex 6.5 0 0
    endloop
  endfacet
  facet normal 0 0 -1
    outer loop
      vertex 6.5 7.3 0
      vertex 6.5 0 0
      vertex 0 7.95 0
    endloop
  endfacet
  facet normal 0 0 -1
    outer loop
      vertex 6.5 0 0
      vertex 14 7.3 0
      vertex 14 0 0
    endloop
  endfacet
  facet normal 0 1 0
    outer loop
      vertex 0 7.95 0
      vertex 0 7.95 9.5
      vertex 6.5 7.95 0
    endloop
  endfacet
  facet normal 0 1 0
    outer loop
      vertex 6.5 7.95 0
      vertex 0 7.95 9.5
      vertex 6.5 7.95 9.5
    endloop
  endfacet
  facet normal 0 0 1
    outer loop
      vertex 2.4 1.4 9.5
      vertex 0 -0.65 9.5
      vertex 6.5 -0.65 9.5
    endloop
  endfacet
  facet normal 0 0 1
    outer loop
      vertex 5 6 9.5
      vertex 6.5 0 9.5
      vertex 6.8 2.5 9.5
    endloop
  endfacet
  facet normal 0 0 1
    outer loop
      vertex 5 1.4 9.5
      vertex 2.4 1.4 9.5
      vertex 6.5 -0.65 9.5
    endloop
  endfacet
  facet normal 0 0 1
    outer loop
      vertex 6.8 2.5 9.5
      vertex 6.8 5.1 9.5
      vertex 5 6 9.5
    endloop
  endfacet
  facet normal 0 0 1
    outer loop
      vertex 0 7.95 9.5
      vertex 0 -0.65 9.5
      vertex 2.4 1.4 9.5
    endloop
  endfacet
  facet normal 0 0 1
    outer loop
      vertex 11.4 5.1 9.5
      vertex 11.4 2.5 9.5
      vertex 14 0 9.5
    endloop
  endfacet
  facet normal 0 0 1
    outer loop
      vertex 6.5 7.3 9.5
      vertex 0 7.95 9.5
      vertex 5 6 9.5
    endloop
  endfacet
  facet normal 0 0 1
    outer loop
      vertex 6.5 0 9.5
      vertex 5 1.4 9.5
      vertex 6.5 -0.65 9.5
    endloop
  endfacet
  facet normal 0 0 1
    outer loop
      vertex 2.4 6 9.5
      vertex 5 6 9.5
      vertex 0 7.95 9.5
    endloop
  endfacet
  facet normal 0 0 1
    outer loop
      vertex 14 0 9.5
      vertex 6.8 2.5 9.5
      vertex 6.5 0 9.5
    endloop
  endfacet
  facet normal 0 0 1
    outer loop
      vertex 11.4 2.5 9.5
      vertex 6.8 2.5 9.5
      vertex 14 0 9.5
    endloop
  endfacet
  facet normal 0 0 1
    outer loop
      vertex 6.8 5.1 9.5
      vertex 11.4 5.1 9.5
      vertex 6.5 7.3 9.5
    endloop
  endfacet
  facet normal 0 0 1
    outer loop
      vertex 6.5 7.3 9.5
      vertex 5 6 9.5
      vertex 6.8 5.1 9.5
    endloop
  endfacet
  facet normal 0 0 1
    outer loop
      vertex 14 7.3 9.5
      vertex 11.4 5.1 9.5
      vertex 14 0 9.5
    endloop
  endfacet
  facet normal 0 0 1
    outer loop
      vertex 14 7.3 9.5
      vertex 6.5 7.3 9.5
      vertex 11.4 5.1 9.5
    endloop
  endfacet
  facet normal 0 0 1
    outer loop
      vertex 6.5 7.3 9.5
      vertex 6.5 7.95 9.5
      vertex 0 7.95 9.5
    endloop
  endfacet
  facet normal 0 0 1
    outer loop
      vertex 2.4 1.4 9.5
      vertex 2.4 6 9.5
      vertex 0 7.95 9.5
    endloop
  endfacet
  facet normal 0 0 1
    outer loop
      vertex 5 6 9.5
      vertex 5 1.4 9.5
      vertex 6.5 0 9.5
    endloop
  endfacet
  facet normal 1 0 0
    outer loop
      vertex 6.5 -0.65 9.5
      vertex 6.5 -0.65 0
      vertex 6.5 0 0
    endloop
  endfacet
  facet normal 1 0 0
    outer loop
      vertex 6.5 0 9.5
      vertex 6.5 -0.65 9.5
      vertex 6.5 0 0
    endloop
  endfacet
  facet normal 0 -1 0
    outer loop
      vertex 6.5 0 9.5
      vertex 6.5 0 0
      vertex 14 0 0
    endloop
  endfacet
  facet normal 0 -1 0
    outer loop
      vertex 14 0 9.5
      vertex 6.5 0 9.5
      vertex 14 0 0
    endloop
  endfacet
  facet normal 1 0 0
    outer loop
      vertex 14 0 9.5
      vertex 14 0 0
      vertex 14 7.3 0
    endloop
  endfacet
  facet normal 1 0 0
    outer loop
      vertex 14 7.3 9.5
      vertex 14 0 9.5
      vertex 14 7.3 0
    endloop
  endfacet
  facet normal 0 1 0
    outer loop
      vertex 6.5 7.3 0
      vertex 6.5 7.3 9.5
      vertex 14 7.3 0
    endloop
  endfacet
  facet normal 0 1 0
    outer loop
      vertex 14 7.3 0
      vertex 6.5 7.3 9.5
      vertex 14 7.3 9.5
    endloop
  endfacet
  facet normal 1 0 0
    outer loop
      vertex 6.5 7.3 9.5
      vertex 6.5 7.3 0
      vertex 6.5 7.95 0
    endloop
  endfacet
  facet normal 1 0 0
    outer loop
      vertex 6.5 7.95 9.5
      vertex 6.5 7.3 9.5
      vertex 6.5 7.95 0
    endloop
  endfacet
  facet normal 2.22045e-16 1 0
    outer loop
      vertex 2.4 1.4 1.51
      vertex 2.4 1.4 9.5
      vertex 5 1.4 1.51
    endloop
  endfacet
  facet normal 2.22045e-16 1 0
    outer loop
      vertex 5 1.4 1.51
      vertex 2.4 1.4 9.5
      vertex 5 1.4 9.5
    endloop
  endfacet
  facet normal 1 -2.22045e-16 0
    outer loop
      vertex 2.4 1.4 9.5
      vertex 2.4 1.4 1.51
      vertex 2.4 6 1.51
    endloop
  endfacet
  facet normal 1 -2.22045e-16 0
    outer loop
      vertex 2.4 6 9.5
      vertex 2.4 1.4 9.5
      vertex 2.4 6 1.51
    endloop
  endfacet
  facet normal -1 2.22045e-16 0
    outer loop
      vertex 5 1.4 1.51
      vertex 5 1.4 9.5
      vertex 5 6 1.51
    endloop
  endfacet
  facet normal -1 2.22045e-16 0
    outer loop
      vertex 5 6 1.51
      vertex 5 1.4 9.5
      vertex 5 6 9.5
    endloop
  endfacet
  facet normal -2.22045e-16 -1 0
    outer loop
      vertex 2.4 6 9.5
      vertex 2.4 6 1.51
      vertex 5 6 1.51
    endloop
  endfacet
  facet normal -2.22045e-16 -1 0
    outer loop
      vertex 5 6 9.5
      vertex 2.4 6 9.5
      vertex 5 6 1.51
    endloop
  endfacet
  facet normal 0 1 0
    outer loop
      vertex 6.8 2.5 1.51
      vertex 6.8 2.5 9.5
      vertex 11.4 2.5 1.51
    endloop
  endfacet
  facet normal 0 1 0
    outer loop
      vertex 11.4 2.5 1.51
      vertex 6.8 2.5 9.5
      vertex 11.4 2.5 9.5
    endloop
  endfacet
  facet normal 1 0 0
    outer loop
      vertex 6.8 2.5 9.5
      vertex 6.8 2.5 1.51
      vertex 6.8 5.1 1.51
    endloop
  endfacet
  facet normal 1 0 0
    outer loop
      vertex 6.8 5.1 9.5
      vertex 6.8 2.5 9.5
      vertex 6.8 5.1 1.51
    endloop
  endfacet
  facet normal -1 0 0
    outer loop
      vertex 11.4 2.5 1.51
      vertex 11.4 2.5 9.5
      vertex 11.4 5.1 1.51
    endloop
  endfacet
  facet normal -1 0 0
    outer loop
      vertex 11.4 5.1 1.51
      vertex 11.4 2.5 9.5
      vertex 11.4 5.1 9.5
    endloop
  endfacet
  facet normal 0 -1 0
    outer loop
      vertex 6.8 5.1 9.5
      vertex 6.8 5.1 1.51
      vertex 11.4 5.1 1.51
    endloop
  endfacet
  facet normal 0 -1 0
    outer loop
      vertex 11.4 5.1 9.5
      vertex 6.8 5.1 9.5
      vertex 11.4 5.1 1.51
    endloop
  endfacet
  facet normal 0 0 1
    outer loop
      vertex 2.4 6 1.51
      vertex 2.4 1.4 1.51
      vertex 5 1.4 1.51
    endloop
  endfacet
  facet normal 0 0 1
    outer loop
      vertex 5 6 1.51
      vertex 2.4 6 1.51
      vertex 5 1.4 1.51
    endloop
  endfacet
  facet normal 0 0 1
    outer loop
      vertex 6.8 5.1 1.51
      vertex 6.8 2.5 1.51
      vertex 11.4 2.5 1.51
    endloop
  endfacet
  facet normal 0 0 1
    outer loop
      vertex 11.4 5.1 1.51
      vertex 6.8 5.1 1.51
      vertex 11.4 2.5 1.51
    endloop
  endfacet
endsolid OpenSCAD_Model
